<?xml version="1.0" encoding="UTF-8" standalone="no"?>
<svg
   id="Layer_2"
   data-name="Layer 2"
   viewBox="0 0 126 150"
   version="1.1"
   sodipodi:docname="switch-casque.svg"
   inkscape:version="1.3.2 (091e20e, 2023-11-25, custom)"
   xmlns:inkscape="http://www.inkscape.org/namespaces/inkscape"
   xmlns:sodipodi="http://sodipodi.sourceforge.net/DTD/sodipodi-0.dtd"
   xmlns="http://www.w3.org/2000/svg"
   xmlns:svg="http://www.w3.org/2000/svg">
  <sodipodi:namedview
     id="namedview32"
     pagecolor="#ffffff"
     bordercolor="#666666"
     borderopacity="1.0"
     inkscape:showpageshadow="2"
     inkscape:pageopacity="0.0"
     inkscape:pagecheckerboard="0"
     inkscape:deskcolor="#d1d1d1"
     inkscape:zoom="15.499781"
     inkscape:cx="47.032924"
     inkscape:cy="99.743347"
     inkscape:window-width="1920"
     inkscape:window-height="1018"
     inkscape:window-x="-6"
     inkscape:window-y="-6"
     inkscape:window-maximized="1"
     inkscape:current-layer="Layer_2" />
  <defs
     id="defs1">
    <style
       id="style1">.cls-1{fill:none;}.cls-2{fill:#2764ae;}.cls-3{fill:#107fe1;}.cls-4{fill:#0c2646;}.cls-5{fill:#29a4e0;}.cls-6{fill:#070312;}</style>
  </defs>
  <rect
     class="cls-1"
     width="126"
     height="150"
     id="rect1" />
  <path
     class="cls-2"
     d="M28.23,50c3-.69,7.35,6.39,8.17,0,16.29-6.74,3.9,17.78-2.53,9.6,0,0-18.65-7.21-19.18-15.33C14.69,44.28,17.39,52.49,28.23,50Z"
     id="path1" />
  <path
     class="cls-2"
     d="M43.76,49.75c-15.41-2.82,5-5.23,3.2,1.4-8.42.22,6.16,3.71,2.81-4.54-7.6-2.36-4.65,3.06-3.31-2.39-17.38-8.56-5.41,8.37-29.29-6.62C19.49,41.85,31.72,54.85,43.76,49.75Z"
     id="path2" />
  <path
     class="cls-2"
     d="M 23.548722,70.287415 C 20.148722,74.037415 17.33,75.78 15.71,82.02 c -0.45,3.51 -7.8,-14.78 -4.89,-4.25 2.57,6.47 -0.31,4.28 3.61,9.07 -7.13,-0.62 -3.6,10.82 3,4.85 C 19.15,63.23 49.73,95.78 40.17,75 36.24,70.4 27.698722,74.347415 23.548722,70.287415 Z"
     id="path3"
     sodipodi:nodetypes="ccccccc" />
  <path
     class="cls-2"
     d="M36.19,92.41c15.16-13.63-5.22-7.27-8.58-4-2.57,2.5-7-3.22-12.15-1.44,4.22,16.7,23.23,6.78,16,8.64C24.56,96.58,32.89,87.73,36.19,92.41Z"
     id="path4" />
  <path
     class="cls-2"
     d="M97.77,50c-3-.69-7.35,6.39-8.17,0-16.29-6.74-3.9,17.78,2.54,9.6,0,0,18.64-7.21,19.17-15.33C111.31,44.28,108.61,52.49,97.77,50Z"
     id="path5" />
  <path
     class="cls-2"
     d="M108.83,37.6c-23.44,14.83-12.16-1.79-29.29,6.61,1.34,5.46,4.29,0-3.31,2.4-3.35,8.25,11.24,4.76,2.81,4.54-1.75-6.63,18.61-4.22,3.2-1.4C94.28,54.85,106.51,41.85,108.83,37.6Z"
     id="path6" />
  <path
     class="cls-2"
     d="m 103.29,70.61 c 3.4,3.75 5.38,5.17 7,11.41 0.46,3.51 7.8,-14.78 4.89,-4.25 -2.57,6.47 0.31,4.28 -3.61,9.07 7.13,-0.62 3.6,10.82 -3,4.85 C 106.86,63.23 76.28,95.78 85.83,75 c 3.93,-4.6 13.180966,-1.168722 17.46,-4.39 z"
     id="path7"
     sodipodi:nodetypes="ccccccc" />
  <path
     class="cls-2"
     d="M89.81,92.41c-15.15-13.63,5.22-7.27,8.58-4,2.57,2.5,7-3.22,12.16-1.44-4.23,16.7-23.24,6.78-16,8.64C101.44,96.58,93.11,87.73,89.81,92.41Z"
     id="path8" />
  <path
     class="cls-3"
     d="M63,147l8.8-11.26c7.85,7.74,4.92-8.29,2.18-10.94,23.65,23.18,7.44-10.27,17.9-1.55,5.2,10.33,4.6-2.76,6.86-6.24,2.47-9.34-13.84-11.79-18.56-20.36,40.21,29.87,18.44,3.16,40.55-6.53-10.18,4.46-53.91-4.17-29.44-4.83-3.33,1.75.6,4.84,2.86,2.27C93.14,83.85,105,89,106,84.33c-.26-5.59-15.56,1.68-13.44-.76,6-1.75-6.82-5.66-7.95-9.63,11.54,3.76,16.3-7.46,27.71.6,4.23-10,18.57-2.73,10-11.17,7.66-3.87.38-10.3-5.72-6.85,9-1.08,10,6.66-.6,5.7-3.09.56-1.88,4.67-7.35,4.28-13.74.81,18.14-10.06,4.66-6.84a46.21,46.21,0,0,0-16.11,7.72c-2.36,5.9-10.29,6.77-2.71.32-33.33-4,31.13,2.43,18.1-28.35,4,11-6.29,15.09-14.44,13.72-1.34,5.25-3.42-.53-4.6,2.51-.27,4-24.12,5.69-10.72,9.37-1.79-.29-2.69,1.16-4,1.89-2.67,3,4.1-1.13,1.34,1.66-6.87,8.07,5.93,5.38,3.36,10.36-9.18-.8,4,7.29-20.46,12.71C38.34,86.05,51.87,78.14,42.54,78.86c-2.57-5,10.23-2.29,3.36-10.36-2.76-2.79,4,1.39,1.34-1.66C45.88,66.11,45,64.66,43.19,65c13.4-3.68-10.45-5.39-10.72-9.37-1.23-3-3.25,2.73-4.6-2.51-8.1,1.41-18.47-2.76-14.44-13.72C.4,70.13,64.86,63.66,31.53,67.7c7.58,6.45-.35,5.58-2.71-.32a46.1,46.1,0,0,0-16.11-7.71c-13.49-3.24,18.4,7.64,4.66,6.82-6.73-2.59-25.28-8.92-8-10C3.32,53.07-4,59.5,3.7,63.37c-8.6,8.44,5.74,1.21,10,11.17,11.39-8.07,16.18,3.16,27.71-.6-1.13,4-14,7.88-8,9.63C35.55,86,20.25,78.74,20,84.33c1,4.7,12.87-.48,11.86,3.22,2.26,2.57,6.19-.52,2.86-2.27,24.47.66-19.26,9.29-29.44,4.83,22.11,9.69.34,36.4,40.55,6.53-4.72,8.57-21,11-18.56,20.36,2.26,3.48,1.66,16.57,6.86,6.24,10.46-8.72-5.75,24.73,17.9,1.55-2.74,2.65-5.67,18.68,2.18,10.94L63,147"
     id="path9" />
  <rect
     class="cls-4"
     x="37.13"
     y="43.69"
     width="51.6"
     height="35.21"
     id="rect9" />
  <path
     class="cls-4"
     d="M85.81,40.94H40.05l-2.92,2.75L40.08,63.4l2.26,15.83a6.23,6.23,0,0,0,.89,2.4l9.86,15.49H72.77l9.86-15.49a6.23,6.23,0,0,0,.89-2.4L85.78,63.4l3-19.71Z"
     id="path10" />
  <path
     class="cls-4"
     d="M47,51.74s.88,3.94,6.1,3.94c0,0,6,0,6-4.5C59.08,51.18,53.89,48.11,47,51.74Z"
     id="path11" />
  <path
     class="cls-3"
     d="M47,51.74s0,.55,12.1,0c0,0,.51-3.77-6-3.77C53.09,48,47,48,47,51.74Z"
     id="path12" />
  <path
     class="cls-4"
     d="M78.91,51.74s-.87,3.94-6.1,3.94c0,0-6,0-6-4.5C66.82,51.18,72,48.11,78.91,51.74Z"
     id="path13" />
  <path
     class="cls-3"
     d="M78.91,51.74s0,.55-12.1,0c0,0-.51-3.77,6-3.77C72.81,48,78.91,48,78.91,51.74Z"
     id="path14" />
  <path
     class="cls-4"
     d="M85.81,59.57H40.05l-2.92,2.51,2.95,18,2.26,14.45a5.37,5.37,0,0,0,.89,2.19l9.86,14.15H72.77l9.86-14.15a5.37,5.37,0,0,0,.89-2.19l2.26-14.45,3-18Z"
     id="path15" />
  <path
     class="cls-4"
     d="M47,70.36s.88,4,6.1,4c0,0,6,0,6-4.5C59.08,69.81,53.89,66.74,47,70.36Z"
     id="path16" />
  <path
     class="cls-3"
     d="M47,70.36s0,.56,12.1,0c0,0,.51-3.77-6-3.77C53.09,66.59,47,66.59,47,70.36Z"
     id="path17" />
  <path
     class="cls-3"
     d="M67.32,81.63c-1.3-3.63-.8-4.44-1.49-5.58a2.88,2.88,0,0,1-.43-1.76l1.07-10.35A64.32,64.32,0,0,1,85.81,67.3c1.33-1.12,0-7.73,0-7.73-5.19-5.28-19-5-19-5H59.06s-13.82-.23-19,5c0,0-1.33,6.61,0,7.73a64.32,64.32,0,0,1,19.34-3.36l1.07,10.35A2.88,2.88,0,0,1,60,76.05c-.69,1.14-.19,2-1.49,5.58a2.37,2.37,0,0,0,0,1.68l2.53,6.27a1.94,1.94,0,0,0,3.68,0l2.53-6.27A2.37,2.37,0,0,0,67.32,81.63Z"
     id="path18" />
  <path
     class="cls-4"
     d="M78.91,70.36s-.87,4-6.1,4c0,0-6,0-6-4.5C66.82,69.81,72,66.74,78.91,70.36Z"
     id="path19" />
  <path
     class="cls-3"
     d="M78.91,70.36s0,.56-12.1,0c0,0-.51-3.77,6-3.77C72.81,66.59,78.91,66.59,78.91,70.36Z"
     id="path20" />
  <path
     class="cls-4"
     d="M85.81,76.39H40.05l-2.92,2.52,2.95,18,2.26,14.45a5.36,5.36,0,0,0,.89,2.2l9.86,12.18,9.84,2,9.84-2,9.86-12.18a5.36,5.36,0,0,0,.89-2.2L85.78,96.9l3-18Z"
     id="path21" />
  <path
     class="cls-2"
     d="M84.28,91,76,85.87c-1.77-.47-13,0-13,0s-11.26-.47-13,0L41.58,91a4.33,4.33,0,0,0-2.12,3.68,4.11,4.11,0,0,0,.62,2.18L47,108.2l6.08,9.47,9.86,1.41,9.86-1.41,6.07-9.47,6.92-11.3a4.11,4.11,0,0,0,.62-2.18A4.33,4.33,0,0,0,84.28,91Z"
     id="path22" />
  <path
     class="cls-4"
     d="M47,88.85a5.86,5.86,0,0,0,6,4.6s6-.66,6-5.16C59.08,88.29,53.89,85.23,47,88.85Z"
     id="path23" />
  <path
     class="cls-5"
     d="M72.77,125.73c0-3.48-9.84-3.39-9.84-3.39s-9.84-.09-9.84,3.39c0,0-.59,4,9.84,4S72.77,125.73,72.77,125.73Z"
     id="path24" />
  <path
     class="cls-5"
     d="M70.63,115.94c-1.92-.08-7.7,1.51-7.7,1.51s-5.78-1.59-7.7-1.51a1.71,1.71,0,0,0-2.16,1.73S54.13,121,62.93,121s9.86-3.35,9.86-3.35A1.71,1.71,0,0,0,70.63,115.94Z"
     id="path25" />
  <path
     class="cls-3"
     d="M47,88.85h12.1s.51-3.77-6-3.77C53.09,85.08,47,85.08,47,88.85Z"
     id="path26" />
  <path
     class="cls-3"
     d="M59.65,109.58a49.2,49.2,0,0,1-10.14-2.06s.24,6.36,3.56,10.15a2.46,2.46,0,0,1,2.16-1.73l7.7-4.54,7.7,4.54a2.46,2.46,0,0,1,2.16,1.73c3.32-3.79,3.56-10.15,3.56-10.15a49.2,49.2,0,0,1-10.14,2.06A32.68,32.68,0,0,1,59.65,109.58Z"
     id="path27" />
  <path
     class="cls-6"
     d="M62.93,111.4s-7.17,0-11.82-2.2c0,0,.67,4.65,3.4,6.39,0,0,2.3,1.86,8.42,1.86s8.42-1.86,8.42-1.86c2.73-1.74,3.4-6.39,3.4-6.39C70.09,111.36,62.93,111.4,62.93,111.4Z"
     id="path28" />
  <path
     class="cls-3"
     d="M65.4,90.91l1.07-8.48a64.32,64.32,0,0,1,19.34,3.36c1.33-1.12,0-7.74,0-7.74-5.19-5.27-19-5-19-5H59.06s-13.82-.23-19,5c0,0-1.33,6.62,0,7.74a64.32,64.32,0,0,1,19.34-3.36l1.07,8.48-1.92,7.34a2.37,2.37,0,0,0,0,1.68l2.53,6.27a1.94,1.94,0,0,0,3.68,0l2.53-6.27a2.37,2.37,0,0,0,0-1.68Z"
     id="path29" />
  <path
     class="cls-4"
     d="M78.91,88.85a6,6,0,0,1-6.16,4.6s-5.93-.66-5.93-5.16C66.82,88.29,72,85.23,78.91,88.85Z"
     id="path30" />
  <path
     class="cls-3"
     d="M78.91,88.85H66.81s-.51-3.77,6-3.77C72.81,85.08,78.91,85.08,78.91,88.85Z"
     id="path31" />
  <path
     class="cls-3"
     d="M75.93,13.81A39.12,39.12,0,0,0,73.41,0a8.62,8.62,0,0,1,4,2.47c4.81,5.8,4.36,19.46,4.36,19.46,0,4.84-4.82,13-8.49,14.37,4.31.54,9.67,1.78,12.49,4.64,0,0,1.33,6.62,0,7.74a64.16,64.16,0,0,0-19.34-3.37L65.4,55.67a2.57,2.57,0,0,0,.36,1.65c.79,1.2.22,2,1.57,5.7a2.4,2.4,0,0,1,0,1.67L64.77,71a1.94,1.94,0,0,1-3.68,0l-2.53-6.27a2.4,2.4,0,0,1,0-1.67c1.35-3.75.78-4.5,1.56-5.7a2.51,2.51,0,0,0,.37-1.65L59.39,45.31a64.16,64.16,0,0,0-19.34,3.37c-1.33-1.12,0-7.74,0-7.74,2.33-2.36,6.39-3.62,10.17-4.29C45.4,35,43.36,24.22,43.36,24.22l12.29.38c1.11,5.93,5.13,6.71,5.13,6.71S75.93,33.71,75.93,13.81Z"
     id="path32" />
</svg>
