<?xml version="1.0" encoding="UTF-8" standalone="no"?>
<svg
   id="png"
   viewBox="0 0 370 80"
   version="1.1"
   sodipodi:docname="title-darkmode.svg"
   xml:space="preserve"
   inkscape:version="1.3.2 (091e20e, 2023-11-25, custom)"
   xmlns:inkscape="http://www.inkscape.org/namespaces/inkscape"
   xmlns:sodipodi="http://sodipodi.sourceforge.net/DTD/sodipodi-0.dtd"
   xmlns="http://www.w3.org/2000/svg"
   xmlns:svg="http://www.w3.org/2000/svg"
   xmlns:rdf="http://www.w3.org/1999/02/22-rdf-syntax-ns#"
   xmlns:cc="http://creativecommons.org/ns#"
   xmlns:dc="http://purl.org/dc/elements/1.1/"><sodipodi:namedview
     id="namedview12"
     pagecolor="#ffffff"
     bordercolor="#666666"
     borderopacity="1.0"
     inkscape:showpageshadow="2"
     inkscape:pageopacity="0.0"
     inkscape:pagecheckerboard="0"
     inkscape:deskcolor="#d1d1d1"
     inkscape:zoom="3.4810811"
     inkscape:cx="145.64441"
     inkscape:cy="39.930124"
     inkscape:window-width="1920"
     inkscape:window-height="1018"
     inkscape:window-x="-6"
     inkscape:window-y="-6"
     inkscape:window-maximized="1"
     inkscape:current-layer="png" /><defs
     id="defs1"><style
       id="style1">.cls-1{fill:#5a5a5a;}.cls-2{fill:#aaa;}</style></defs><title
     id="title1">info-titre</title><style
     id="style1-6">
		.s0 { opacity: 1;fill: #000000 } 
		.s1 { opacity: .4;fill: #000000 } 
		.s2 { opacity: .3;fill: #000000 } 
		.s3 { opacity: .5;fill: #000000 } 
	</style><style
     id="style1-5">
		.s0 { opacity: 1;fill: #000000 } 
		.s1 { opacity: .4;fill: #000000 } 
		.s2 { opacity: .3;fill: #000000 } 
		.s3 { opacity: .5;fill: #000000 } 
	</style><g
     id="img1"
     transform="matrix(1.0081029,0,0,1.0081029,10.830233,-2.359702)"
     style="fill:#ffffff"><path
       id="Path 0"
       fill-rule="evenodd"
       class="s0"
       d="m 8,9.3 c 2.5,0.1 3.8,0.9 4.8,2.7 1,2 1.2,6.1 0.7,19 -0.4,9.1 -1.8955,44.992627 -3.02223,45.881282 -1.3835053,1.091173 -3.8560092,1.995732 -6.3906227,0.7269 C 1.5525338,76.33935 3.3,69.3 3.3,69.3 3.8,64.5 4.6,56.5 5.2,51.5 5.8,46.5 6.6,41.6 7.1,40.5 7.5,39.4 7.5,38 7,37.5 6.5,37 6,32.7 5.8,28 5.5,20.6 5.2,19.3 3.3,17.7 2,16.8 0.9,14.9 0.8,13.5 0.7,12 1.4,10.7 2.6,10.1 3.6,9.5 6.1,9.1 8,9.3 Z M 129,32 c 1.29273,1.136903 0.2955,5.156155 0.2955,5.156155 C 128.50396,45.217428 123.99178,50.324255 118.5,56 l 4.36629,-0.397748 c 2.29052,-0.208654 4.15581,0.367418 4.15581,0.867418 0,0.5 -3.29218,0.955568 -4.79218,1.455568 -1.53371,0.212738 0.28388,1.654029 0.77008,1.974762 0.66779,0.440522 2.6,2 3.9,4.3 2.80711,3.590641 5.18311,6.676 3.78311,8.076 -5.99484,2.850067 -6.45016,-5.505454 -8.85728,-9.031806 C 120.42583,61.544194 117.1,60 116,60 c -1.7,0 -2,0.8 -2.2,5.3 0.63396,5.097029 -0.18586,10.054307 -1.09142,5.425747 l -2.94004,0.869321 c 0,1.7 -1.42087,-1.934504 -1.93969,-2.235884 C 106.89477,68.816573 108,67.8 108,65 c 0,-4.2 0.10625,-5.69375 -1.59375,-6.09375 -0.84141,-0.229475 -3.26055,0.0042 -4.24237,-0.252934 -0.30175,-0.07901 -0.19513,-0.410774 -0.19513,-0.528316 0,-0.5 3.08593,-1.037738 4.18593,-1.337738 1.3,-0.3 1.94532,-1.887262 2.34532,-3.987262 0.2,-1.8 0.5,-5.6 0.7,-8.4 0.2,-3.7 0,-5 -0.9,-4.8 -0.7,0.2 -1.3,-0.2 -1.3,-0.8 -0.1,-0.7 0.7,-2.1 1.7,-3 1,-1 3.2,-2.2 4.8,-2.7 1.7,-0.5 11.61052,-4.520645 15.5,-1.1 z m -12.1875,10.9 c -0.8,1.7 -1.41875,4.7375 -0.91875,5.0375 0.4,0.3 2.4125,-0.2875 3.4125,-0.8875 1.1,-0.7 2.09375,-3.35 2.59375,-4.25 0.6,-1 0.7,-2.4 0.3,-3.2 -0.5,-0.9 -1.4,-1.2 -2.3,-0.7 -0.8,0.5 -2.2875,2.3 -3.0875,4 z M 157.5,38.1125 c 3.24029,1.403832 -0.88861,5.741938 -1.9,7.6875 -1.4,2.8 -1.04047,5.510485 -0.54047,5.810485 0.4,0.3 0.84047,0.389515 2.44047,0.389515 2.2,0 2.6,0.3 1.5,0.9 -1.2,0.8 -0.8,1.1 1.5,1.4 2.2,0.3 1.6,0.5 -7,1 l 4,0.7 c 2.7,0.5 3.2,0.8 1.5,0.9 -1.4,0.1 -3,0.5 -3.7,0.9 -1.27295,1.254271 0.36292,6.815785 1.28081,9.689292 0.6156,1.927252 -3.72678,4.205344 -6.76518,-3.167417 C 149.31562,61.521875 148.1,58.4 147.5,57.9 c -0.6,-0.5 -3.5,-1 -6.5,-1.2 -4.3,-0.1 -5.5,-0.6 -5.7,-2 -0.3,-1.4 0.5,-1.7 4.6,-1.7 3.4,0 5.5,-0.5 6.7,-1.8 0.9,-0.9 2.3,-3.3 3.1,-5.2 0.8,-1.9 3.70148,-6.874874 4.40148,-8.074874 2.09459,-2.369712 2.94227,-0.957403 3.39852,0.187374 z"
       sodipodi:nodetypes="cccszcscscccccaccsscscccscccsscsscccccccascccccscccsccccccscsccscscc"
       style="fill:#ffffff" /><path
       id="Path 1"
       class="s0"
       d="m 160.51247,30.769226 c -2.6,0.9 -3.33569,1.913182 -4.83569,4.113182 -1.2,1.8 -4.96362,10.32746 -4.6936,10.492038 3.65037,2.224861 9.69749,-7.386682 12.8287,-9.975334 1.6625,-0.9625 6.16937,-2.292862 6.85062,-2.917862 0.6,-1.2 -0.13125,-1.51875 -2.26875,-2.1375 -2.35242,-0.623286 -5.30775,-0.626044 -7.88128,0.425476 z M 6.7277174,39.590217 c -0.1,1.4 -0.3755435,3.265762 -0.075544,3.265762 C 6.9521739,42.855979 7.2,41.1 7.5,40 7.8,38.9 7.3527174,36.368478 6.8527174,36.068478 c -0.5,-0.3 -0.025,2.121739 -0.125,3.521739 z M 152.7708,51.244194 c 0.3,0.5 1.49483,0.958931 3.29483,0.958931 2.3,0 4.03437,0.09687 2.93437,0.696875 -1.2,0.8 -1.89375,1.13125 0.40625,1.43125 1.9,0.3 2.48158,-0.150532 -0.71842,-0.05053 -2.7,0.1 -8.51559,-0.08023 -8.21559,0.219773 0.3,0.2 3.83579,2.555883 9.2144,2.327856 7.16235,-1.52132 9.20542,-2.430568 9.92417,-3.099318 -0.11407,-1.768926 -4.58732,-2.119068 -8.53628,-1.736912 -2.8,0.2 -5.9292,-0.508234 -6.3292,-1.108234 -0.38768,-1.779802 -2.2064,-0.961353 -1.97453,0.360311 z M 11.971343,52 c 0,1.4 0.159649,1.746198 0.459649,0.946198 -0.607773,-0.8 0.207299,-1.959648 0.09415,-2.459648 -0.3,-0.5 -0.553802,0.11345 -0.553802,1.51345 z m 96.422467,12.022097 c 0,2.5 -0.0541,3.952427 0.14588,2.552427 0.2,-1.4 0.11161,-4.350174 -0.0884,-5.450174 -0.2,-1.1 -0.0575,0.397747 -0.0575,2.897747 z M 110.1,66.5 c -0.1,1.7 -1.43033,-1.140388 -1.95468,0.486563 -1,0.7 -1.14532,5.313437 -0.74532,6.813437 0.3,1.2 1.4,2.2 2.4,2.2 1,0 2.3,-0.6 3,-1.2 0.7,-0.7 1.2,-2.1 1.2,-3 0,-1 -0.0139,-2.053553 -0.71386,-1.853553 C 112.58614,70.046447 111.3,69 110.9,67 c -0.6,-3.5 -0.6,-3.5 -0.8,-0.5 z m 17.2,8.7 c 0.56379,0.917681 1.8,2.3 3.2,2.8 1.4,0.5 3.6,0.8 5,0.5 1.4,-0.3 2.5,-1.2 2.5,-2 0,-0.8 0.57957,-1.961369 -0.73336,-3.279029 C 124.30397,60.21155 115.68757,53.400197 127.3,75.2 Z m 22.5228,-11.459154 c 0.37013,2.386534 -0.18801,11.937366 2.74532,11.993798 5.52043,0.106203 12.31316,-0.30176 17.27717,-3.044448 1.07422,-0.593521 -0.6102,-1.995888 -1.59953,-2.674366 -2.12969,-1.460514 -9.59772,1.954012 -10.57533,-0.412132 -2.15684,-5.220264 -8.81333,-12.089565 -7.84763,-5.862852 z"
       sodipodi:nodetypes="ccsccccssssscsccccccccccccscccscccscscccccssccsssssssss"
       style="fill:#ffffff" /><path
       id="Path 4"
       fill-rule="evenodd"
       class="s0"
       d="M 271.05806,27.892116 C 274.043,30.122688 272.75795,32.531665 269.8,39 c -1.3,2.4 -2.9708,6.032019 -4.7708,7.732019 -6.61269,5.313433 1.17259,3.68026 5.00442,7.332163 1.4,1.4 -5.07162,1.494227 -5.94432,1.062768 -2.15052,-0.704679 -7.21319,2.211354 -8.17023,5.679054 -0.92301,8.516636 0.59679,8.784868 -5.29858,15.723392 -2.52136,0.900226 0.58765,-7.871175 0.81434,-14.175843 C 251.54263,59.35549 252.1,51.6 253.5,34.8 l -2.8,0.6 c -1.9,0.4 -2.6,0.2 -2.2,-0.7 0.3,-0.6 3.1,-2.9 6.3,-5 5.1,-3.3 11.655,-5.247638 16.25806,-1.807884 z M 258.6,38.2 c -0.5,2.3 -0.54307,4.170019 1.15693,4.170019 1.1,0 3.14307,-2.570019 4.24307,-4.170019 1.2,-1.5 2.1,-3.2 2.1,-3.9 0.1,-0.6 -0.3,-1.4 -0.9,-1.7 -0.5,-0.3 -2,0.2 -3.3,1.1 -2.15857,1.266389 -2.80202,2.173375 -3.3,4.5 z M 54.2,33 c 3.2,0 4.8,0.4 4.9,1.2 0,1 0.1,1 0.5,0 0.2,-0.6 0.8,-1.2 1.4,-1.2 0.5,0 0.9,6.7 1,16.5 0,10.2 -0.5,18.3 -1.2,21.1 -0.7,2.6 -1.319877,4.973099 -2.219877,5.473099 C 57.380123,76.673099 55.2,76.5 53.8,75.6 52.5,74.9 47.8,71 35,60 v 4.7 c 0,2.7 -0.3,6.3 -0.7,8.1 -0.6,2.3 -1.4,3.3 -2.8,3.3 -1.1,0 -2.6,-0.6 -3.3,-1.3 -1,-1 -1.1,-3.4 -0.6,-9.8 0.6,-8.1 0.5,-8.6 -1.7,-10.8 -1.3,-1.2 -3.523082,-1.670616 -4.6,-2.2 -1.547826,-0.76087 -1.677174,-0.966304 -2.8,-2.5 -0.333333,-1.666667 0.333333,-3.666667 2,-6 1.4,-1.9 3.5,-4.2 4.8,-5.1 1.3,-0.8 3.6,-1.4 5.2,-1.2 2.4,0.3 3.4,1.4 6.9,8.4 2.3,4.4 5.9,10.3 8.1,13 2.1,2.7 5.4,6.5 10.5,11.9 v -10 C 56,51.1 55.9,50.4 53.8,49.5 53.062742,49.184032 51.514659,49.913555 50.987606,49.075105 50.509265,48.314149 49.883012,41.816988 51.2,40.5 51.930724,39.835704 52.92281,40.4426 53.622776,40.835251 56.008991,41.874657 56.614386,42.756088 57,39 c 0,-2.2 -0.5,-3 -1.7,-3 -1,0 -2.7,-0.6 -3.8,-1.5 -1.9,-1.3 -1.7,-1.4 2.8,-1.5 z m 44.684368,0.698188 C 99.73264,34.319336 99.845919,35.559193 99.9,36.1 c 0,1 -0.54532,2.288388 -1.34532,2.688388 -0.8,0.5 -2.352428,1.196622 -2.652428,0.896622 -0.3,-0.3 -3.017942,-2.76066 -2.717942,-4.26066 -0.02722,-2.841228 2.993955,-3.06238 5.700058,-1.726162 z M 93,35.2 c -0.1,0.5 -0.1,1.8 -0.1,3 0.1,1.9 -0.9,2.6 -4.6,3.8 -2.6,0.8 -5.6,2.6 -6.6,4 -1,1.4 -2.3,4 -2.8,5.7 -0.359321,1.077964 -1.551925,4.096925 -1.832437,4.661889 C 75.355106,59.810852 75.9,52.840557 75.9,56.7 c 0,1 -0.3,2.2 -0.7,2.6 -0.4,0.5 -0.8,1.2 -0.9,1.5 -0.1,0.4 -0.5,2.3 -0.9,4.2 -0.7,3 -0.9,3.2 -1.6,1.5 -0.4,-1.1 -0.8,-4.3 -0.8,-7 -0.1,-2.8 0.3,-6.6 0.9,-8.5 0.5,-1.9 2.4,-5.2 4.2,-7.2 1.8,-2.1 5.8,-5.1 8.8,-6.7 7.610768,-4.312769 8.1,-2.45021 8.1,-1.9 z m 119.33125,-1.309375 c 0.65302,0.789878 2.72164,4.107471 3.45,9.934375 0.4,2.4 0.95998,8.793624 0.75998,9.693624 -0.2,1 -6.39397,-0.968514 -5.59401,-0.948272 1.41908,0.03591 1.45053,0.43225 1.75053,-1.36775 C 212.99775,50.002602 212.1,46 211.3,44.2 c -0.69047,-1.632023 -3.9806,-9.180826 -7.73515,-9.355868 -3.47316,-0.161924 -0.0556,-3.944248 0.3539,-4.391007 0.50784,-0.677125 7.92063,2.842545 8.4125,3.4375 z M 205.1,49 c 1,0 2.13258,0.776777 2.43258,1.376777 0.3,0.7 1.04139,0.469749 0.18617,1.685723 -1.40056,1.991337 -5.12953,6.561551 -6.01875,0.6375 -0.1,-1.3 0.2,-2.7 0.7,-3 0.5,-0.4 1.7,-0.7 2.7,-0.7 z m 127.12322,2.453204 C 335.51852,51.27707 336.2,53.5 340.8,61.2 c 4.4,7.5 4.7,8.4 3.2,9.6 -1,0.8 -1.7,0.9 -1.8,0.2 -0.2,-0.5 -0.26911,-0.446447 -0.86911,-0.146447 -0.6,0.3 -1.32209,-1.32864 -2.03089,-2.153553 -0.6425,-1.27734 -2,-4.3 -3.8,-6.9 -1.7,-2.6 -3.3,-4.8 -3.6,-4.8 -0.3,0 -2.70485,3.600349 -6.60485,9.300349 0.38131,-3.071222 -3.56094,-3.513676 1.2691,-10.753974 2.69039,-3.233714 3.04216,-3.953302 5.65897,-4.093171 z M 190.83125,43.625 c 2.2,0 4.34354,-2.465165 4.04354,2.534835 -0.11544,1.616195 -4.54938,17.439991 -3.30985,21.429602 1.59008,4.603683 2.38567,4.14642 -1.05244,7.904313 -2.1,-0.4 -3.08667,-2.391498 -3.48667,-2.791498 C 186.62583,72.402252 185.4,69.8 186,66.5 c 0.5,-3.3 1.2,-6.8 1.5,-7.8 0.3,-1 2.03125,-15.075 3.33125,-15.075 z M 78.016365,68.584793 c 0.7,1.2 3.360246,1.904092 4.060246,1.904092 0.6,0 1.953223,0.876611 1.953223,1.376611 0,0.5 0.232449,0.932748 1.632449,0.932748 1.4,0 3.395031,-0.02866 4.195031,0.271346 1.3,0.4 2.887147,2.233346 1.687147,3.533346 C 90.744461,77.402933 86.9,77 85.5,77 c -2.17337,0 -7.652169,-2.200409 -7.758823,-2.375876 -0.244759,-0.402679 0.06371,-6.462295 0.275188,-6.039331 z"
       sodipodi:nodetypes="sccccsssccccscscccsccccscccccscssccscccscccssscssscccsccscscccscsscccccccccsccsccscsscsscsscscsccsccsscscccsscsssccssc"
       style="fill:#ffffff" /><path
       id="Path 5"
       fill-rule="evenodd"
       class="s0"
       d="m 288.76967,20.877903 c 0.4,0 1.20936,0.555806 1.40936,1.255806 1.0513,0.690641 1.16404,0.447573 2.32097,-0.03371 1.5,-1.1 2,-1.1 3.2,0.2 0.7,0.9 2.29375,1.412262 4.10424,0.972573 1.17079,0.919844 3.57701,2.077427 3.57701,3.177427 0,2.276658 -2.65625,0.689247 -2.65625,2.2 0,0.6 1.975,3.75 3.875,5.55 2.2,2 4,4.8 4.6,7.2 0.6,2.2 2.1625,7.9625 2.1625,12.5625 0,5.9 -2.51688,12.666815 -3.61688,14.666815 -1.08909,2.057182 -9.04779,9.634152 -17.44562,5.570685 -2.6,-1.2 -5.4625,-3.0375 -7.0625,-6.2375 -1.2,-2.4 -1.4375,-6.9625 -1.7375,-10.0625 -0.4,-3 -0.2,-8 0.5,-11.2 1.31472,-7.230948 2.28558,-9.335184 7.1,-13.3 1.6,-1.3 2.64645,-2.855806 2.64645,-3.455806 0,-0.5 -1.48389,-0.404505 -2.18389,-0.804505 -0.7,-0.4 -2.22856,4.058174 -3.87417,3.495146 C 284.52178,32.23569 285.98144,25.938502 287.1,23.2 c 0.34645,-1.089515 1.16967,-2.322097 1.66967,-2.322097 z M 289.6,42.4 c -1.8,3.8 -3.225,7.5625 -3.325,11.8625 -0.21565,6.347029 0.77011,13.896514 8.325,14.5375 2.2,0.1 5,-0.3 6.3,-1 4.59648,-2.828602 5.2,-9.034108 5.2,-12.1 0,-2.6 -0.5,-6.9 -1.2,-9.5 -0.6,-2.6 -1.8,-5.6 -2.7,-6.6 -1.55146,-1.723843 -7.90279,-7.76872 -12.6,2.8 z M 236.8,21.9 c 1.2,0 2.4,0.6 2.6,1.3 0.2,0.7 0.19887,2.132583 -0.30113,3.132583 -0.5,1.1 -1.35918,2.782757 -3.15918,2.782757 -5.82821,0 -3.19949,-4.764963 -2.92695,-5.193243 C 233.61274,22.822097 235.5,21.9 236.8,21.9 Z M 325.5,36 c 4.01772,8.218057 6.93979,11.262191 6.99375,11.18125 0.1,-0.2 2.70625,-2.78125 4.50625,-5.28125 1.9,-2.4 4.9,-6.1 6.7,-8.2 3.4629,-3.827413 6.58235,-6.426635 6.22808,-2.883883 0,1 -2.62583,5.258407 -4.22583,7.658407 -2.65382,3.112414 -9.92607,15.560196 -13.58275,15.044194 C 326.39683,52.711184 324.97797,45.182973 322.5,40.4 c -2.7,-5.2 -4.65,-9.225 -4.15,-11.325 0.17004,-0.637639 1.4985,-4.378003 7.15,6.925 z M 54.271196,29.532609 C 54.471196,29.532609 56.3,29.4 58.3,30 c 2.1,0.5 3.14937,3.527619 2.845022,3.613489 C 60.856294,33.694951 61.4,32.6 60.6,33.399997 c -0.9,0.9 -1.446198,2.283635 -1.446198,1.683635 0,-0.5 -4.198263,-0.757893 -6.598263,-0.757893 -2.5,3e-6 -2.631626,-1.606717 -2.831626,-2.006717 C 49.642935,31.524457 50.5,31.1 51.6,30.3 c 1.1,-0.7 2.371196,-0.767391 2.671196,-0.767391 z M 203.1,30.2 c 3.2,-0.1 6.42884,3.327626 3.9897,3.952633 -2.37812,0.609375 -0.2022,1.278617 -4.4022,0.778617 -5.61093,-1.339668 -6.62301,4.534449 -7.31069,8.506932 -0.25722,1.485866 -1.30466,6.998125 -3.08054,6.704459 -2.78783,-0.461006 -2.242,-4.83361 -1.99627,-6.942641 0.2,-4.4 0,-5.2 -1.2,-4.6 -0.9,0.3 -3.1,1.2 -5,1.9 -2,0.8 -4.8,1.4 -6.3,1.4 -1.5,0 -3,-0.4 -3.2,-1 -0.3,-0.5 0,-1.4 0.7,-1.9 0.7,-0.4 4,-2.2 7.3,-3.9 3.3,-1.7 8.4,-3.5 11.5,-3.9 3,-0.5 7,-0.9 9,-1 z m 32.8,2 c 1.5,0.3 1.6,2.1 1.5,14.8 -0.2,7.9 -0.5,17.1 -0.8,20.4 -0.3,3.3 -0.38241,8.026951 -1.18241,9.126951 -1.96291,1.026602 -2.48388,1.126602 -4.32582,-0.07452 C 229.59177,75.152427 230.1,73 231.4,58.4 c 0.8,-8.8 1.5,-17.9 1.6,-20.4 0.1,-2.4 0.4,-4.8 0.7,-5.3 0.4,-0.5 1.3,-0.7 2.2,-0.5 z M 95.6,32.9 c 1.1,0 1.3,0.8 0.7,3.1 -0.6,2.3 -0.4,3 0.8,3 0.933333,0.06667 0.766667,0.366667 -0.5,0.9 -1.1,0.5 -6.65,1.30625 -7.05,1.40625 -0.4,0 1.99375,-1.8375 2.09375,-3.6375 0.1,-1.8 -1.04375,-2.6625 -0.84375,-3.0625 0.2,-0.4 4,-1.70625 4.8,-1.70625 z m 70.79467,6.03125 c 1.3,0 2.68214,1.312944 2.98214,2.312944 0.3,1 0.0509,2.167418 -0.64911,2.867418 -0.7,0.8 -0.89272,1.140901 -1.81472,1.528093 -0.93018,0.390625 -2.32013,-0.09121 -3.15334,-0.864993 -0.67506,-0.626913 -1.43041,-2.820955 -0.30203,-4.452821 0.7,-0.6 1.63706,-1.390641 2.93706,-1.390641 z M 221.1,53.9 c 2.2,0.6 3.5,1.40625 3.5,1.90625 0,0.6 -0.90625,1 -2.20625,0.9 L 218.3,56.8 c -1.47903,0.652427 -2.27903,1.343068 -3.4,3.9 -0.6,2.1 -2.5,5.9 -4.2,8.5 -2.3,3.6 -3.11612,5.718718 -5.71612,6.418718 -2,0.5 -6.48388,0.281282 -8.88388,0.281282 -8.29456,0.459983 -10.25225,-2.370151 -10.25574,-8.049493 0.65527,-6.023553 4.95597,0.08668 6.97686,1.486214 3.80109,1.176615 8.83176,2.399325 11.97888,-0.536721 1.2,-1.3 3.1,-4.5 6.3,-11.9 l -7.59375,-1.25 c -0.60353,-0.09935 0.67461,-4.893916 1.01357,-6.249286 0.3,-1.2 3.98074,0.90886 6.81311,2.268394 l 1.98917,0.464037 c 3.39073,0.884012 4.1203,1.006241 7.7779,1.766855 z m 51.6,12.8 c -0.9,2.3 -2.6,4.9 -3.9,5.8 -1.3,0.8 -4.36137,1.493899 -7.36742,2.251301 -2.83998,0.715558 -4.08985,1.382331 -11.05235,1.856231 -0.37684,0.02565 5.70344,-10.456132 4.53382,-6.473155 C 254.3399,72.08956 261.29863,70.152047 263.1,69.4 274.04735,64.829625 264.67863,54.808276 263.54436,54.848277 250.80863,50.172368 276.98428,46.382431 272.7,66.7 Z m -194.5,3 c 0.353376,2.885329 0.3,5.3 0.1,5.2 -0.1,0 -2.043863,-0.896488 -3.643863,-2.596488 -2.8,-2.7 -3.730594,-6.951338 -2.830594,-9.951338 0.6,-1.8 2.044044,-2.227627 2.144044,-2.827627 0.1,-0.6 0.123389,-0.262563 0.523389,-0.762563 0.5,-0.5 0.571271,-1.59854 0.961405,-2.519298 1.245001,-2.938333 3.044486,-2.66312 1.947453,-0.678937 -1.037466,1.876445 -0.150922,6.309085 0.336462,11.490005 C 77.824932,67.974701 78.07906,68.712522 78.2,69.7 Z M 61.221196,59.533152 c 0.161956,1.176087 0.466304,2.7 0.266304,3.5 -0.3,0.9 -0.709239,-0.09511 -0.709239,-2.095109 0,-1.9 0.142935,-2.504891 0.442935,-1.404891 z M 326,60.9 c 0.5,2.7 0.1,4.4 -1.5,7 -0.64818,1.080294 -3.53112,6.90625 -7.4625,6.90625 -0.6,0 -1.6875,-0.63125 -1.6875,-1.53125 0,-0.8 1.95,-3.875 3.45,-5.775 0.74275,-0.928439 6.48637,-10.545388 7.3125,-10.75625 C 326.5125,55.84375 325.6,58.8 326,60.9 Z M 29.430978,60.93261 c 0.3,0.6 -0.955435,1.186413 -1.255435,1.986413 -0.2,0.9 0.279892,0.190761 0.279892,-1.209239 0,-1.3 0.775543,-1.277174 0.975543,-0.777174 z M 250.38906,76.590625 c -1.5,0.1 -4.44844,-1.290625 -4.44844,-1.290625 -4.7803,-1.962932 0.46107,-1.072965 2.65938,-1.6 4.57691,-8.470898 2.7005,0.821965 1.78906,2.890625 z M 83.907304,70.647954 C 86.607304,70.847954 90.9,71 92.6,70.9 c 1.6,0 3.9,0.7 5,1.5 0.890337,0.667753 0.85968,1.12583 0.872763,1.556606 0.01043,0.34336 0.02491,0.579414 -0.272763,1.143394 -0.7,0.8 -3.2,1.6 -5.6,1.8 -3.1,0.4 -4.2,0.2 -3.9,-0.7 0.2,-0.7 0.9,-1.3 1.6,-1.3 0.866667,0 0.8,-0.333333 -0.2,-1 -0.9,-0.5 -2.8,-0.9 -4.3,-0.9 -1.5,0 -2.7,-0.5 -2.7,-1.1 0,-0.5 -1.492696,-1.052046 -2.492696,-1.252046 -0.9,-0.3 0.5,-0.3 3.3,0 z M 342.75625,69.48125 c 0.3,0.9 -2.5,-3.65625 -1,-4.35625 1.1,-0.5 4.54375,5.175 4.84375,5.575 0.3,0.4 1.03125,2.159375 1.03125,2.859375 0,0.7 -2.26875,1.003125 -3.26875,1.003125 -1.96998,0 -4.97399,-5.184807 -4.97399,-5.880655 -0.0563,-0.59375 3.16774,0.09941 3.36774,0.799405 z M 28.506522,72.641848 C 28.706522,72.941848 27.3,73.3 28.1,74.4 c 2.255978,1.234239 2.084783,1.315217 0.384783,-0.184783 -1,-0.8 -0.658696,-0.606521 -0.658696,-1.206521 0,-0.5 0.580435,-0.566848 0.680435,-0.366848 z m 5.209239,0.472826 c 0.2,1.1 -0.385326,0.464674 -0.885326,0.964674 -0.7,0.7 -0.990218,1.602717 -0.590218,-0.497283 0.5,-2.3 1.275544,-1.967391 1.475544,-0.467391 z"
       sodipodi:nodetypes="sccccssccsccscccssscscsccscscsscscsccccccscccscssssccscscsscccsccsccccsccccccsscccssssscsscscscccccccsccsccccccssssscsccscssssscscccsscccccsccccccccscccscssccccssssccccsccsccs"
       style="fill:#ffffff" /><path
       id="Path 8"
       class="s0"
       d="m 54.5,31.7 c 1.1,0.2 2.7,0.2 3.5,0 0.8,-0.3 -0.1,-0.5 -2,-0.5 -1.9,0 -2.6,0.2 -1.5,0.5 z M 233,50 c 0,0.5 0.4,1 1,1 0.6,0 1.1,-0.5 1.3,-1 0.2,-0.5 -0.3,-1 -1,-1 -0.7,0 -1.3,0.5 -1.3,1 z"
       style="fill:#ffffff" /><path
       id="Path 9"
       class="s0"
       d="m 292.91161,53.625825 c -0.033,2.960401 2.92264,4.827388 5.88839,2.774175 1,-0.7 1.7,-2.4 1.7,-4.4 0,-2.1 -0.7,-3.8 -2,-4.7 -3.87794,-2.769958 -5.80936,3.454854 -5.58839,6.325825 z"
       sodipodi:nodetypes="ccscc"
       style="fill:#ffffff" /></g><metadata
     id="metadata12"><rdf:RDF><cc:Work
         rdf:about=""><dc:title>info-titre</dc:title></cc:Work></rdf:RDF></metadata></svg>
